<svg xmlns="http://www.w3.org/2000/svg" width="640" height="400" viewBox="0 0 640 400">
  <defs>
    <linearGradient id="ga" x1="0" y1="0" x2="1" y2="1">
      <stop offset="0" stop-color="#7C5CFF"/>
      <stop offset="1" stop-color="#32FFB5"/>
    </linearGradient>
  </defs>
  <rect width="640" height="400" rx="28" fill="rgba(255,255,255,0.06)"/>
  <g transform="translate(92,70)">
    <rect width="456" height="260" rx="24" fill="rgba(13,20,43,0.88)" stroke="rgba(255,255,255,0.14)"/>
    <rect x="28" y="28" width="190" height="18" rx="9" fill="url(#ga)"/>
    <rect x="28" y="58" width="320" height="12" rx="6" fill="rgba(234,240,255,0.22)"/>
    <rect x="28" y="82" width="280" height="12" rx="6" fill="rgba(234,240,255,0.18)"/>
    <g transform="translate(28,124)">
      <rect width="180" height="150" rx="18" fill="rgba(255,255,255,0.06)" stroke="rgba(255,255,255,0.12)"/>
      <rect x="204" width="224" height="150" rx="18" fill="rgba(255,255,255,0.06)" stroke="rgba(255,255,255,0.12)"/>
      <circle cx="62" cy="58" r="34" fill="url(#ga)" opacity="0.35"/>
      <path d="M42 86 C52 104, 72 104, 82 86" stroke="rgba(234,240,255,0.75)" stroke-width="6" fill="none" stroke-linecap="round"/>
      <path d="M36 56 C44 48, 52 48, 60 56" stroke="rgba(234,240,255,0.60)" stroke-width="6" fill="none" stroke-linecap="round"/>
      <path d="M64 56 C72 48, 80 48, 88 56" stroke="rgba(234,240,255,0.60)" stroke-width="6" fill="none" stroke-linecap="round"/>
      <path d="M242 46 L270 30 L298 46 L326 30" stroke="url(#ga)" stroke-width="7" fill="none" stroke-linecap="round"/>
      <rect x="224" y="74" width="180" height="12" rx="6" fill="rgba(234,240,255,0.22)"/>
      <rect x="224" y="98" width="140" height="12" rx="6" fill="rgba(234,240,255,0.18)"/>
    </g>
  </g>
</svg>