<svg xmlns="http://www.w3.org/2000/svg" width="640" height="400" viewBox="0 0 640 400">
  <defs>
    <linearGradient id="gg" x1="0" y1="0" x2="1" y2="1">
      <stop offset="0" stop-color="#00D4FF"/>
      <stop offset="1" stop-color="#7C5CFF"/>
    </linearGradient>
  </defs>
  <rect width="640" height="400" rx="28" fill="rgba(255,255,255,0.06)"/>
  <g transform="translate(86,78)">
    <rect width="468" height="244" rx="24" fill="rgba(13,20,43,0.88)" stroke="rgba(255,255,255,0.14)"/>
    <g transform="translate(36,42)">
      <rect width="210" height="18" rx="9" fill="url(#gg)"/>
      <rect y="30" width="300" height="12" rx="6" fill="rgba(234,240,255,0.22)"/>
      <rect y="54" width="260" height="12" rx="6" fill="rgba(234,240,255,0.18)"/>
    </g>
    <g transform="translate(52,132)">
      <path d="M0 120 L0 0 L60 0" stroke="rgba(234,240,255,0.18)" stroke-width="8" fill="none" stroke-linecap="round"/>
      <path d="M120 120 L120 24 L180 24" stroke="rgba(234,240,255,0.18)" stroke-width="8" fill="none" stroke-linecap="round"/>
      <path d="M240 120 L240 52 L300 52" stroke="rgba(234,240,255,0.18)" stroke-width="8" fill="none" stroke-linecap="round"/>
      <path d="M360 120 L360 78 L420 78" stroke="rgba(234,240,255,0.18)" stroke-width="8" fill="none" stroke-linecap="round"/>
      <circle cx="0" cy="120" r="12" fill="#32FFB5"/>
      <circle cx="120" cy="120" r="12" fill="#00D4FF"/>
      <circle cx="240" cy="120" r="12" fill="#7C5CFF"/>
      <circle cx="360" cy="120" r="12" fill="#00D4FF"/>
      <path d="M0 120 C 70 70, 160 70, 240 120 S 410 170, 460 80" stroke="url(#gg)" stroke-width="9" fill="none" stroke-linecap="round"/>
    </g>
  </g>
</svg>