<svg xmlns="http://www.w3.org/2000/svg" width="1600" height="900" viewBox="0 0 1600 900">
  <defs>
    <linearGradient id="g1" x1="0" y1="0" x2="1" y2="1">
      <stop offset="0" stop-color="#7C5CFF"/>
      <stop offset="1" stop-color="#00D4FF"/>
    </linearGradient>
    <linearGradient id="g2" x1="1" y1="0" x2="0" y2="1">
      <stop offset="0" stop-color="#32FFB5" stop-opacity="0.85"/>
      <stop offset="1" stop-color="#7C5CFF" stop-opacity="0.75"/>
    </linearGradient>
    <radialGradient id="rg" cx="30%" cy="20%" r="80%">
      <stop offset="0" stop-color="#00D4FF" stop-opacity="0.55"/>
      <stop offset="0.6" stop-color="#7C5CFF" stop-opacity="0.18"/>
      <stop offset="1" stop-color="#070A12" stop-opacity="0"/>
    </radialGradient>
    <filter id="blur" x="-50%" y="-50%" width="200%" height="200%">
      <feGaussianBlur stdDeviation="28"/>
    </filter>
  </defs>

  <rect width="1600" height="900" fill="#070A12"/>
  <circle cx="320" cy="220" r="260" fill="url(#g1)" opacity="0.45" filter="url(#blur)"/>
  <circle cx="1250" cy="220" r="320" fill="url(#g2)" opacity="0.35" filter="url(#blur)"/>
  <circle cx="1180" cy="740" r="380" fill="#32FFB5" opacity="0.12" filter="url(#blur)"/>
  <circle cx="520" cy="700" r="280" fill="url(#rg)" opacity="0.6" filter="url(#blur)"/>

  <g fill="none" stroke="rgba(234,240,255,0.26)" stroke-width="10" stroke-linecap="round">
    <path d="M120 560 C 280 420, 460 420, 620 560 S 960 700, 1120 560 1360 420, 1520 560"/>
    <path d="M120 640 C 280 500, 460 500, 620 640 S 960 780, 1120 640 1360 500, 1520 640" opacity="0.55"/>
  </g>

  <rect width="1600" height="900" fill="rgba(7,10,18,0.35)"/>
</svg>