<svg xmlns="http://www.w3.org/2000/svg" width="640" height="400" viewBox="0 0 640 400">
  <defs>
    <linearGradient id="go" x1="0" y1="0" x2="1" y2="1">
      <stop offset="0" stop-color="#32FFB5"/>
      <stop offset="1" stop-color="#00D4FF"/>
    </linearGradient>
  </defs>
  <rect width="640" height="400" rx="28" fill="rgba(255,255,255,0.06)"/>
  <g transform="translate(70,78)">
    <path d="M250 30 C330 30, 410 70, 410 146 C410 220, 340 270, 250 270 C160 270, 90 220, 90 146 C90 70, 170 30, 250 30 Z" fill="rgba(13,20,43,0.88)" stroke="rgba(255,255,255,0.14)" stroke-width="2"/>
    <circle cx="250" cy="146" r="78" fill="url(#go)" opacity="0.35"/>
    <path d="M250 86 L250 206" stroke="rgba(234,240,255,0.8)" stroke-width="10" stroke-linecap="round"/>
    <path d="M190 146 L310 146" stroke="rgba(234,240,255,0.8)" stroke-width="10" stroke-linecap="round"/>
    <circle cx="250" cy="146" r="14" fill="url(#go)"/>
    <g opacity="0.75">
      <circle cx="62" cy="72" r="10" fill="#00D4FF"/>
      <circle cx="448" cy="72" r="10" fill="#32FFB5"/>
      <circle cx="62" cy="252" r="10" fill="#7C5CFF"/>
      <circle cx="448" cy="252" r="10" fill="#00D4FF"/>
      <path d="M72 72 L160 118" stroke="rgba(234,240,255,0.30)" stroke-width="4"/>
      <path d="M438 72 L340 118" stroke="rgba(234,240,255,0.30)" stroke-width="4"/>
      <path d="M72 252 L160 202" stroke="rgba(234,240,255,0.30)" stroke-width="4"/>
      <path d="M438 252 L340 202" stroke="rgba(234,240,255,0.30)" stroke-width="4"/>
    </g>
  </g>
</svg>